<?xml version="1.0" standalone="no"?>
<!DOCTYPE svg PUBLIC "-//W3C//DTD SVG 20010904//EN"
 "http://www.w3.org/TR/2001/REC-SVG-20010904/DTD/svg10.dtd">
<svg version="1.0" xmlns="http://www.w3.org/2000/svg"
 width="400.000000pt" height="400.000000pt" viewBox="0 0 400.000000 400.000000"
 preserveAspectRatio="xMidYMid meet">
<metadata>
Created by potrace 1.11, written by Peter Selinger 2001-2013
</metadata>
<g transform="translate(0.000000,400.000000) scale(0.100000,-0.100000)"
fill="#000000" stroke="none">
<path d="M0 2000 l0 -2000 2000 0 2000 0 0 2000 0 2000 -2000 0 -2000 0 0
-2000z m1940 1530 l0 -340 -585 0 -585 0 0 -65 0 -65 645 0 645 0 0 405 0 405
910 0 910 0 0 -340 0 -340 -315 0 -315 0 0 -1535 0 -1535 -595 0 -595 0 0 410
0 410 -60 0 -60 0 0 -410 0 -410 -905 0 -905 0 0 1875 0 1875 905 0 905 0 0
-340z m1940 -1940 l0 -1470 -250 0 -250 0 0 1470 0 1470 250 0 250 0 0 -1470z"/>
<path d="M1940 2030 l0 -340 -585 0 -585 0 0 -65 0 -65 645 0 645 0 0 405 0
405 -60 0 -60 0 0 -340z"/>
</g>
</svg>
